<svg xmlns="http://www.w3.org/2000/svg" viewBox="0 0 720 220" role="img" aria-labelledby="title desc">
  <title id="title">Tubetable logo</title>
  <desc id="desc">A clean Tubetable wordmark with a playful mixer table icon.</desc>
  <defs>
    <linearGradient id="deck" x1="74" x2="222" y1="58" y2="162" gradientUnits="userSpaceOnUse">
      <stop stop-color="#38bdf8"/>
      <stop offset="1" stop-color="#2563eb"/>
    </linearGradient>
    <linearGradient id="note" x1="116" x2="177" y1="65" y2="127" gradientUnits="userSpaceOnUse">
      <stop stop-color="#fef08a"/>
      <stop offset="1" stop-color="#fb923c"/>
    </linearGradient>
    <filter id="soft-shadow" x="0" y="0" width="260" height="220" filterUnits="userSpaceOnUse">
      <feDropShadow dx="0" dy="12" stdDeviation="14" flood-color="#0f172a" flood-opacity=".18"/>
    </filter>
  </defs>

  <g filter="url(#soft-shadow)">
    <rect x="36" y="34" width="210" height="152" rx="42" fill="url(#deck)"/>
    <circle cx="94" cy="110" r="44" fill="#f8fafc" opacity=".96"/>
    <circle cx="94" cy="110" r="16" fill="#1d4ed8"/>
    <circle cx="188" cy="110" r="28" fill="#f8fafc" opacity=".96"/>
    <circle cx="188" cy="110" r="10" fill="#1d4ed8"/>
    <path d="M137 80v54c0 11-9 20-23 20-12 0-22-7-22-17 0-11 10-18 23-18 5 0 10 1 14 3V73l58-12v50c0 11-10 19-23 19-12 0-22-7-22-17 0-11 10-18 23-18 5 0 9 1 13 3V72l-41 8Z" fill="url(#note)"/>
    <path d="M58 170h166" stroke="#dbeafe" stroke-width="10" stroke-linecap="round" opacity=".9"/>
    <path d="M70 170h34M128 170h28M180 170h32" stroke="#1d4ed8" stroke-width="10" stroke-linecap="round" opacity=".75"/>
  </g>

  <g fill="#0f172a">
    <text x="278" y="115" font-family="Inter, ui-sans-serif, system-ui, -apple-system, BlinkMacSystemFont, 'Segoe UI', sans-serif" font-size="70" font-weight="800" letter-spacing="-4">Tubetable</text>
    <text x="282" y="154" font-family="Inter, ui-sans-serif, system-ui, -apple-system, BlinkMacSystemFont, 'Segoe UI', sans-serif" font-size="24" font-weight="650" letter-spacing=".5" opacity=".68">mix YouTube like a tiny soundboard</text>
  </g>
</svg>
